<svg width="143" height="143" viewBox="0 0 143 143" fill="none" xmlns="http://www.w3.org/2000/svg">
<path d="M130.789 107.25H12.2105C15.2 77.1408 40.6037 53.625 71.4997 53.625C102.396 53.625 127.799 77.1408 130.789 107.25Z" stroke="#333333" stroke-width="8" stroke-linejoin="round"/>
<path d="M41.7083 59.5833L29.7917 38.7291" stroke="#333333" stroke-width="8" stroke-linecap="round" stroke-linejoin="round"/>
<path d="M98.3125 59.5833L110.229 38.7291" stroke="#333333" stroke-width="8" stroke-linecap="round" stroke-linejoin="round"/>
<path d="M44.6875 92.3542C47.9782 92.3542 50.6458 89.6865 50.6458 86.3958C50.6458 83.1051 47.9782 80.4375 44.6875 80.4375C41.3968 80.4375 38.7292 83.1051 38.7292 86.3958C38.7292 89.6865 41.3968 92.3542 44.6875 92.3542Z" fill="#333333"/>
<path d="M98.3125 92.3542C101.603 92.3542 104.271 89.6865 104.271 86.3958C104.271 83.1051 101.603 80.4375 98.3125 80.4375C95.0218 80.4375 92.3542 83.1051 92.3542 86.3958C92.3542 89.6865 95.0218 92.3542 98.3125 92.3542Z" fill="#333333"/>
</svg>
