<svg width="143" height="143" viewBox="0 0 143 143" fill="none" xmlns="http://www.w3.org/2000/svg">
<path d="M71.2351 33.717C71.4794 27.0689 73.3473 21.2293 76.7945 16.3478C80.2593 11.4416 85.987 7.95643 93.8273 5.98157C93.8794 6.223 93.9337 6.46458 93.99 6.70524V7.9684C93.99 10.8327 93.2952 14.1171 91.9239 17.7298C90.4868 21.2277 88.2408 24.5199 85.2577 27.4912C82.4678 30.1092 79.8866 31.8425 77.6055 32.626C76.8523 32.8509 75.8197 33.0723 74.5727 33.2716C73.4635 33.4444 72.3508 33.593 71.2351 33.717Z" fill="black"/>
<path d="M72.5433 43.5823C63.6871 43.5823 57.5384 35.7498 48.8026 35.7498C40.0671 35.7498 22.0703 43.7792 22.0703 71.4998C22.0703 99.2203 38.0517 117.081 39.8392 119.166C41.6264 121.252 45.7603 126.613 52.1646 126.613C58.5692 126.613 65.5807 121.521 72.5433 121.521C79.5056 121.521 88.2691 126.613 93.9903 126.613C99.7115 126.613 102.065 124.28 105.959 120.258C109.852 116.235 117.279 103.959 119.872 96.5906C115.6 94.0476 104.277 87.144 104.277 71.4998C104.277 61.0706 108.088 52.4063 115.711 45.5074C110.71 39.0024 104.91 35.7498 98.3113 35.7498C88.4124 35.7498 81.3995 43.5823 72.5433 43.5823Z" stroke="black" stroke-width="8" stroke-linejoin="round"/>
</svg>
