<svg width="208" height="48" viewBox="0 0 208 48" fill="none" xmlns="http://www.w3.org/2000/svg">
<g clip-path="url(#clip0_89_2)">
<path d="M0 46.5317H12.8506V31.9459H28.554V20.9066H12.8506V14.2137H30.5269V2.66772H0V46.5317Z" fill="#231F20"/>
<path d="M59.3535 8.05658C58.8998 8.03922 58.4716 7.968 57.9918 7.97785C57.512 7.9877 57.0872 8.07643 56.6347 8.11239C47.688 -12.4539 19.5445 15.7548 41.8898 23.1641C41.8955 23.4307 41.8752 23.7245 41.8809 23.991C41.8917 24.4976 41.9292 25.0035 41.9933 25.509C19.6924 33.888 49.8824 61.4594 57.5678 39.2715C57.941 39.2639 58.2898 39.3634 58.663 39.3557C59.0362 39.3481 59.381 39.261 59.7536 39.2267C68.3805 61.0531 97.3922 32.2931 74.7259 24.8371C74.7684 24.3295 74.7842 23.8224 74.7734 23.3159C74.7676 23.0493 74.7619 22.7827 74.729 22.49C96.7396 14.2503 67.4123 -12.8855 59.3529 8.02992L59.3535 8.05658Z" fill="#231F20"/>
<path d="M116.109 34.2924C114.242 34.8523 112.376 35.1456 110.563 35.1456C108.19 35.1456 106.164 34.719 104.484 33.8657C102.805 33.0124 101.525 31.8125 100.645 30.2393C99.7654 28.666 99.3121 26.7995 99.3121 24.6129C99.3121 23.013 99.5521 21.5465 100.032 20.2665C100.512 18.9866 101.232 17.8667 102.192 16.9334C103.125 16.0268 104.298 15.3068 105.684 14.8269C107.071 14.3469 108.644 14.0803 110.456 14.0803C112.483 14.0803 114.296 14.4002 115.949 15.0135C117.602 15.6268 118.988 16.5601 120.134 17.7867L126.426 7.38733C124.267 5.60077 121.921 4.21419 119.361 3.22758C116.828 2.24097 113.576 1.761 109.63 1.761C106.164 1.761 102.991 2.32097 100.085 3.4409C97.1793 4.56083 94.6731 6.13407 92.5402 8.18728C90.4074 10.2405 88.7544 12.667 87.608 15.4935C86.4349 18.32 85.8483 21.4131 85.8483 24.8263C85.8483 29.4926 86.8614 33.5191 88.861 36.9055C90.8606 40.292 93.6333 42.9052 97.2059 44.7451C100.752 46.5849 104.831 47.4916 109.47 47.4916C113.549 47.4916 117.042 46.9849 120.001 45.9983C122.96 44.985 125.413 43.7318 127.413 42.2385L121.574 31.6525C119.868 32.8524 118.055 33.7591 116.189 34.319L116.109 34.2924Z" fill="#231F20"/>
<path d="M155.247 28.5595C155.247 30.9593 154.661 32.7459 153.461 33.8925C152.261 35.0391 150.581 35.6257 148.369 35.6257C146.156 35.6257 144.423 35.0391 143.223 33.8925C142.023 32.7192 141.437 30.9593 141.437 28.5595V2.66772H128.586V27.8662C128.586 31.7593 129.333 35.1724 130.852 38.1056C132.345 41.0387 134.585 43.3586 137.517 45.0118C140.45 46.665 144.076 47.4917 148.369 47.4917C152.661 47.4917 156.287 46.665 159.22 45.0118C162.152 43.3586 164.365 41.0387 165.885 38.1056C167.378 35.1724 168.151 31.7593 168.151 27.8929V2.66772H155.247V28.5595Z" fill="#231F20"/>
<path d="M204.783 24.8265C202.651 22.7733 199.185 21.0668 194.359 19.6535L191.106 18.7202C189.587 18.2936 188.414 17.8936 187.534 17.6003C186.654 17.2803 186.014 16.9603 185.641 16.6404C185.268 16.2937 185.081 15.8671 185.081 15.3604C185.081 14.7738 185.321 14.2672 185.774 13.8139C186.227 13.3606 186.867 13.0139 187.694 12.7473C188.52 12.4806 189.507 12.3473 190.626 12.3473C192.039 12.3473 193.452 12.5339 194.865 12.9073C196.252 13.2806 197.558 13.8139 198.705 14.4538C199.878 15.1204 200.838 15.8671 201.557 16.7204L207.716 7.62757C205.877 5.81435 203.397 4.37444 200.278 3.36117C197.158 2.32123 193.826 1.81459 190.2 1.81459C187.694 1.81459 185.374 2.16124 183.241 2.8812C181.108 3.60115 179.242 4.58776 177.669 5.86768C176.096 7.1476 174.87 8.64084 173.99 10.3741C173.11 12.0806 172.684 13.9472 172.684 15.9204C172.684 19.0669 173.723 21.8134 175.803 24.1066C177.882 26.4264 181.348 28.213 186.174 29.5196L189.48 30.3995C191.773 30.9862 193.346 31.5461 194.199 32.1061C195.052 32.666 195.479 33.3593 195.479 34.2126C195.479 35.0659 194.919 35.7592 193.826 36.2392C192.733 36.7191 191.32 36.9591 189.64 36.9591C188.147 36.9591 186.547 36.7458 184.868 36.3192C183.188 35.8925 181.615 35.3059 180.149 34.5593C178.682 33.8126 177.509 32.9327 176.656 31.9194L170.711 41.2522C173.03 43.2521 175.883 44.7986 179.242 45.8652C182.601 46.9318 186.067 47.4651 189.613 47.4651C193.159 47.4651 196.518 46.8518 199.291 45.5986C202.037 44.3453 204.197 42.6388 205.717 40.4256C207.236 38.2124 208.009 35.6525 208.009 32.746C208.009 29.5196 206.943 26.8531 204.837 24.8265H204.783Z" fill="#231F20"/>
<path d="M71.2531 24.6133C71.2531 22.9524 70.9597 21.4278 70.3731 20.0665C69.7864 18.6779 68.9331 17.5072 67.8131 16.4998C66.6931 15.4924 65.3597 14.7301 63.7864 14.1856C62.2131 13.641 60.4531 13.3688 58.5064 13.3688C55.8931 13.3688 53.6264 13.8588 51.7331 14.8118C49.8131 15.7647 48.3464 17.0988 47.3064 18.7868C46.2664 20.4749 45.7597 22.4351 45.7597 24.6405C45.7597 26.3013 46.0531 27.826 46.6397 29.1873C47.2264 30.5758 48.0797 31.7466 49.1997 32.7539C50.3197 33.7613 51.6531 34.5236 53.2264 35.0682C54.7997 35.6127 56.5597 35.885 58.5064 35.885C61.1197 35.885 63.3864 35.3949 65.2797 34.442C67.1997 33.489 68.6664 32.155 69.7064 30.4669C70.7464 28.7789 71.2531 26.8186 71.2531 24.6133Z" fill="#FDFEFE"/>
<path d="M58.2144 32.2366C59.2544 32.2366 60.2144 32.046 61.0944 31.692C61.9744 31.3381 62.7211 30.8208 63.3344 30.1673C63.9478 29.5139 64.4544 28.6971 64.8011 27.7713C65.1478 26.8456 65.3078 25.7837 65.3078 24.613C65.3078 23.061 65.0144 21.6997 64.4011 20.5561C63.7878 19.4126 62.9611 18.5413 61.8944 17.9151C60.8278 17.2889 59.6011 16.9894 58.1878 16.9894C57.1478 16.9894 56.1878 17.1799 55.3078 17.5067C54.4278 17.8606 53.6811 18.3779 53.0678 19.0314C52.4544 19.6848 51.9478 20.5017 51.6011 21.4274C51.2544 22.3531 51.0944 23.415 51.0944 24.5857C51.0944 26.1377 51.3878 27.4991 52.0011 28.6426C52.6144 29.7861 53.4411 30.6574 54.5078 31.2836C55.5744 31.9099 56.8011 32.2094 58.2144 32.2094V32.2366Z" fill="#231F20"/>
<path d="M65.4147 26.382C64.9347 25.7013 64.1347 24.8844 63.4681 24.4215C63.1747 24.2309 63.1747 23.7953 63.4681 23.6047C64.1614 23.1418 64.9614 22.3249 65.4147 21.6442C65.6281 21.3446 66.0281 21.3446 66.2414 21.6442C66.7214 22.3249 67.5214 23.1418 68.1881 23.6047C68.4814 23.7953 68.4814 24.2309 68.1881 24.4215C67.4947 24.8844 66.6947 25.7013 66.2414 26.382C66.0281 26.6815 65.6281 26.6815 65.4147 26.382Z" fill="#FDFEFE"/>
</g>
<defs>
<clipPath id="clip0_89_2">
<rect width="208" height="48" fill="white"/>
</clipPath>
</defs>
</svg>
