<svg width="340" height="80" viewBox="0 0 340 80" fill="none" xmlns="http://www.w3.org/2000/svg">
<g clip-path="url(#clip0_7_54)">
<path d="M0 77.6426H21.0049V53.3048H46.6726V34.8847H21.0049V23.7169H49.8974V4.45135H0V77.6426Z" fill="white"/>
<path d="M97.0158 13.4431C96.2742 13.4142 95.5743 13.2953 94.79 13.3118C94.0058 13.3282 93.3115 13.4763 92.5717 13.5363C77.948 -20.7806 31.9463 26.2884 68.4707 38.6514C68.48 39.0962 68.4467 39.5865 68.456 40.0313C68.4738 40.8765 68.535 41.7208 68.6399 42.5641C32.1881 56.5453 81.5349 102.551 94.0971 65.5282C94.707 65.5154 95.2772 65.6815 95.8871 65.6687C96.4971 65.6559 97.0607 65.5106 97.6697 65.4533C111.771 101.873 159.192 53.884 122.143 41.443C122.212 40.596 122.238 39.7499 122.22 38.9047C122.211 38.4599 122.202 38.015 122.148 37.5266C158.125 23.7779 110.188 -21.5006 97.0148 13.3987L97.0158 13.4431Z" fill="white"/>
<path d="M189.784 57.22C186.734 58.1544 183.683 58.6438 180.72 58.6438C176.841 58.6438 173.529 57.9319 170.784 56.5082C168.039 55.0844 165.947 53.0822 164.509 50.4571C163.071 47.832 162.33 44.7175 162.33 41.069C162.33 38.3994 162.722 35.9523 163.506 33.8167C164.291 31.681 165.467 29.8123 167.036 28.255C168.562 26.7422 170.479 25.5409 172.745 24.7401C175.011 23.9392 177.582 23.4942 180.546 23.4942C183.858 23.4942 186.821 24.0282 189.523 25.0515C192.225 26.0748 194.491 27.6321 196.365 29.6788L206.649 12.3265C203.119 9.34543 199.284 7.03178 195.101 5.38554C190.961 3.73929 185.644 2.93842 179.195 2.93842C173.529 2.93842 168.344 3.87277 163.594 5.74148C158.844 7.61019 154.747 10.2353 151.261 13.6613C147.775 17.0872 145.073 21.1361 143.199 25.8524C141.281 30.5687 140.323 35.7299 140.323 41.425C140.323 49.2113 141.979 55.9297 145.247 61.5804C148.515 67.231 153.048 71.5913 158.887 74.6614C164.683 77.7314 171.351 79.2441 178.933 79.2441C185.601 79.2441 191.31 78.3988 196.147 76.7525C200.984 75.0618 204.993 72.9706 208.262 70.479L198.718 52.8152C195.929 54.8174 192.966 56.3302 189.915 57.2645L189.784 57.22Z" fill="white"/>
<path d="M253.758 47.6542C253.758 51.6586 252.799 54.6396 250.838 56.5528C248.877 58.466 246.132 59.4449 242.514 59.4449C238.897 59.4449 236.065 58.466 234.104 56.5528C232.143 54.5951 231.184 51.6586 231.184 47.6542V4.45135H210.179V46.4974C210.179 52.9934 211.399 58.6885 213.883 63.5827C216.324 68.477 219.984 72.3479 224.778 75.1065C229.572 77.865 235.498 79.2443 242.514 79.2443C249.531 79.2443 255.457 77.865 260.251 75.1065C265.045 72.3479 268.662 68.477 271.146 63.5827C273.586 58.6885 274.85 52.9934 274.85 46.5419V4.45135H253.758V47.6542Z" fill="white"/>
<path d="M334.727 41.4254C331.241 37.9994 325.575 35.1519 317.688 32.7937L312.371 31.2365C309.887 30.5246 307.97 29.8572 306.532 29.3678C305.094 28.8338 304.048 28.2999 303.438 27.766C302.827 27.1876 302.522 26.4757 302.522 25.6303C302.522 24.6515 302.915 23.8061 303.655 23.0497C304.396 22.2934 305.442 21.7149 306.793 21.27C308.144 20.8251 309.756 20.6026 311.587 20.6026C313.896 20.6026 316.206 20.9141 318.516 21.537C320.782 22.1599 322.917 23.0497 324.791 24.1176C326.709 25.2299 328.277 26.4757 329.454 27.8995L339.521 12.7273C336.514 9.7018 332.461 7.29917 327.362 5.60843C322.264 3.8732 316.816 3.02783 310.889 3.02783C306.793 3.02783 303.002 3.60624 299.516 4.80756C296.029 6.00887 292.979 7.65512 290.408 9.79079C287.836 11.9265 285.832 14.4181 284.394 17.3101C282.956 20.1577 282.258 23.2722 282.258 26.5647C282.258 31.8149 283.958 36.3977 287.357 40.2241C290.756 44.095 296.421 47.076 304.309 49.2562L309.713 50.7245C313.461 51.7033 316.032 52.6377 317.426 53.572C318.821 54.5064 319.518 55.6632 319.518 57.087C319.518 58.5108 318.603 59.6676 316.816 60.4685C315.029 61.2693 312.72 61.6698 309.974 61.6698C307.534 61.6698 304.919 61.3138 302.174 60.6019C299.428 59.8901 296.857 58.9112 294.46 57.6654C292.064 56.4196 290.146 54.9513 288.752 53.2606L279.034 68.8332C282.825 72.1702 287.488 74.7508 292.979 76.5305C298.47 78.3102 304.135 79.2001 309.931 79.2001C315.727 79.2001 321.218 78.1767 325.75 76.0856C330.238 73.9944 333.768 71.1468 336.252 67.4539C338.736 63.761 340 59.4896 340 54.6399C340 49.2562 338.257 44.8069 334.814 41.4254H334.727Z" fill="white"/>
<path d="M116.471 41.0221C116.471 38.2541 115.992 35.7129 115.033 33.4441C114.074 31.1298 112.679 29.1786 110.848 27.4997C109.018 25.8207 106.838 24.5501 104.266 23.6426C101.694 22.7351 98.8175 22.2813 95.6355 22.2813C91.3637 22.2813 87.6585 23.0981 84.5637 24.6863C81.4252 26.2745 79.0278 28.498 77.3278 31.3114C75.6278 34.1247 74.7996 37.3919 74.7996 41.0675C74.7996 43.8355 75.279 46.3766 76.238 48.6455C77.197 50.9597 78.5919 52.9109 80.4226 54.5899C82.2534 56.2688 84.4329 57.5394 87.0047 58.4469C89.5765 59.3545 92.4534 59.8083 95.6355 59.8083C99.9073 59.8083 103.612 58.9915 106.707 57.4033C109.846 55.8151 112.243 53.5916 113.943 50.7782C115.643 47.9648 116.471 44.6976 116.471 41.0221Z" fill="black"/>
<path d="M95.1582 53.7276C96.8582 53.7276 98.4274 53.41 99.8659 52.8201C101.304 52.2301 102.525 51.3679 103.527 50.2789C104.53 49.1898 105.358 47.8284 105.925 46.2855C106.492 44.7427 106.753 42.9729 106.753 41.0216C106.753 38.435 106.274 36.1661 105.271 34.2602C104.268 32.3543 102.917 30.9022 101.174 29.8585C99.43 28.8147 97.4248 28.3156 95.1146 28.3156C93.4146 28.3156 91.8454 28.6332 90.4069 29.1778C88.9684 29.7677 87.7479 30.6299 86.7454 31.719C85.7428 32.8081 84.9146 34.1694 84.3479 35.7123C83.7813 37.2552 83.5197 39.0249 83.5197 40.9762C83.5197 43.5628 83.9992 45.8317 85.0018 47.7376C86.0043 49.6436 87.3556 51.0957 89.0992 52.1394C90.8428 53.1831 92.8479 53.6823 95.1582 53.6823V53.7276Z" fill="white"/>
<path d="M106.928 43.97C106.143 42.8355 104.836 41.474 103.746 40.7025C103.266 40.3849 103.266 39.6588 103.746 39.3411C104.879 38.5696 106.187 37.2082 106.928 36.0736C107.277 35.5744 107.93 35.5744 108.279 36.0736C109.064 37.2082 110.371 38.5696 111.461 39.3411C111.941 39.6588 111.941 40.3849 111.461 40.7025C110.328 41.474 109.02 42.8355 108.279 43.97C107.93 44.4692 107.277 44.4692 106.928 43.97Z" fill="black"/>
</g>
<defs>
<clipPath id="clip0_7_54">
<rect width="340" height="80" fill="white"/>
</clipPath>
</defs>
</svg>

